<svg width="19" height="19" viewBox="0 0 19 19" fill="none" xmlns="http://www.w3.org/2000/svg">
<path d="M0.678571 0C0.498603 0 0.326006 0.0714923 0.198749 0.198749C0.0714923 0.326006 0 0.498603 0 0.678571V6.10714C0 6.28711 0.0714923 6.45971 0.198749 6.58697C0.326006 6.71422 0.498603 6.78571 0.678571 6.78571C0.85854 6.78571 1.03114 6.71422 1.15839 6.58697C1.28565 6.45971 1.35714 6.28711 1.35714 6.10714V2.31664L5.62671 6.58757C5.75413 6.71499 5.92695 6.78657 6.10714 6.78657C6.28734 6.78657 6.46015 6.71499 6.58757 6.58757C6.71499 6.46015 6.78657 6.28734 6.78657 6.10714C6.78657 5.92695 6.71499 5.75413 6.58757 5.62671L2.31664 1.35714H6.10714C6.28711 1.35714 6.45971 1.28565 6.58697 1.15839C6.71422 1.03114 6.78571 0.85854 6.78571 0.678571C6.78571 0.498603 6.71422 0.326006 6.58697 0.198749C6.45971 0.0714923 6.28711 0 6.10714 0H0.678571ZM0.678571 19C0.498603 19 0.326006 18.9285 0.198749 18.8013C0.0714923 18.674 0 18.5014 0 18.3214V12.8929C0 12.7129 0.0714923 12.5403 0.198749 12.413C0.326006 12.2858 0.498603 12.2143 0.678571 12.2143C0.85854 12.2143 1.03114 12.2858 1.15839 12.413C1.28565 12.5403 1.35714 12.7129 1.35714 12.8929V16.6834L5.62671 12.4124C5.75413 12.285 5.92695 12.2134 6.10714 12.2134C6.28734 12.2134 6.46015 12.285 6.58757 12.4124C6.71499 12.5398 6.78657 12.7127 6.78657 12.8929C6.78657 13.0731 6.71499 13.2459 6.58757 13.3733L2.31664 17.6429H6.10714C6.28711 17.6429 6.45971 17.7143 6.58697 17.8416C6.71422 17.9689 6.78571 18.1415 6.78571 18.3214C6.78571 18.5014 6.71422 18.674 6.58697 18.8013C6.45971 18.9285 6.28711 19 6.10714 19H0.678571ZM19 0.678571C19 0.498603 18.9285 0.326006 18.8013 0.198749C18.674 0.0714923 18.5014 0 18.3214 0H12.8929C12.7129 0 12.5403 0.0714923 12.413 0.198749C12.2858 0.326006 12.2143 0.498603 12.2143 0.678571C12.2143 0.85854 12.2858 1.03114 12.413 1.15839C12.5403 1.28565 12.7129 1.35714 12.8929 1.35714H16.6834L12.4124 5.62671C12.285 5.75413 12.2134 5.92695 12.2134 6.10714C12.2134 6.28734 12.285 6.46015 12.4124 6.58757C12.5398 6.71499 12.7127 6.78657 12.8929 6.78657C13.0731 6.78657 13.2459 6.71499 13.3733 6.58757L17.6429 2.31664V6.10714C17.6429 6.28711 17.7143 6.45971 17.8416 6.58697C17.9689 6.71422 18.1415 6.78571 18.3214 6.78571C18.5014 6.78571 18.674 6.71422 18.8013 6.58697C18.9285 6.45971 19 6.28711 19 6.10714V0.678571ZM18.3214 19C18.5014 19 18.674 18.9285 18.8013 18.8013C18.9285 18.674 19 18.5014 19 18.3214V12.8929C19 12.7129 18.9285 12.5403 18.8013 12.413C18.674 12.2858 18.5014 12.2143 18.3214 12.2143C18.1415 12.2143 17.9689 12.2858 17.8416 12.413C17.7143 12.5403 17.6429 12.7129 17.6429 12.8929V16.6834L13.3733 12.4124C13.2459 12.285 13.0731 12.2134 12.8929 12.2134C12.7127 12.2134 12.5398 12.285 12.4124 12.4124C12.285 12.5398 12.2134 12.7127 12.2134 12.8929C12.2134 13.0731 12.285 13.2459 12.4124 13.3733L16.6834 17.6429H12.8929C12.7129 17.6429 12.5403 17.7143 12.413 17.8416C12.2858 17.9689 12.2143 18.1415 12.2143 18.3214C12.2143 18.5014 12.2858 18.674 12.413 18.8013C12.5403 18.9285 12.7129 19 12.8929 19H18.3214Z" fill="#757575"/>
</svg>
