<svg width="20" height="20" viewBox="0 0 20 20" fill="none" xmlns="http://www.w3.org/2000/svg">
<path d="M5.83337 1.66675C5.17033 1.66675 4.53445 1.93014 4.06561 2.39898C3.59677 2.86782 3.33337 3.50371 3.33337 4.16675V15.8334C3.33337 16.4965 3.59677 17.1323 4.06561 17.6012C4.53445 18.07 5.17033 18.3334 5.83337 18.3334H14.1667C14.8297 18.3334 15.4656 18.07 15.9345 17.6012C16.4033 17.1323 16.6667 16.4965 16.6667 15.8334V15.0001C16.6667 14.5398 16.2936 14.1667 15.8334 14.1667C15.3731 14.1667 15 14.5398 15 15.0001V15.8334C15 16.0544 14.9122 16.2664 14.756 16.4227C14.5997 16.579 14.3877 16.6667 14.1667 16.6667H5.83337C5.61236 16.6667 5.4004 16.579 5.24412 16.4227C5.08784 16.2664 5.00004 16.0544 5.00004 15.8334V4.16675C5.00004 3.94573 5.08784 3.73377 5.24412 3.57749C5.4004 3.42121 5.61236 3.33341 5.83337 3.33341H14.1667C14.3877 3.33341 14.5997 3.42121 14.756 3.57749C14.9122 3.73377 15 3.94573 15 4.16675V5.00008C15 5.46032 15.3731 5.83341 15.8334 5.83341C16.2936 5.83341 16.6667 5.46032 16.6667 5.00008V4.16675C16.6667 3.50371 16.4033 2.86782 15.9345 2.39898C15.4656 1.93014 14.8297 1.66675 14.1667 1.66675H5.83337Z" fill="#D55F5A"/>
<path d="M13.9226 6.91083C13.5972 6.58539 13.0696 6.58539 12.7441 6.91083C12.4187 7.23626 12.4187 7.7639 12.7441 8.08934L13.8215 9.16675H10C9.5398 9.16675 9.16671 9.53984 9.16671 10.0001C9.16671 10.4603 9.5398 10.8334 10 10.8334H13.8215L12.7441 11.9108C12.4187 12.2363 12.4187 12.7639 12.7441 13.0893C13.0696 13.4148 13.5972 13.4148 13.9226 13.0893L16.4226 10.5893C16.7481 10.2639 16.7481 9.73626 16.4226 9.41083L13.9226 6.91083Z" fill="#D55F5A"/>
</svg>
