<svg width="20" height="20" viewBox="0 0 20 20" fill="current" xmlns="http://www.w3.org/2000/svg">
    <path
        d="M6.66667 7.50004C6.20643 7.50004 5.83333 7.87314 5.83333 8.33337C5.83333 8.79361 6.20643 9.16671 6.66667 9.16671H13.3333C13.7936 9.16671 14.1667 8.79361 14.1667 8.33337C14.1667 7.87314 13.7936 7.50004 13.3333 7.50004H6.66667Z"
        fill="#757575" />
    <path
        d="M6.66667 10.8334C6.20643 10.8334 5.83333 11.2065 5.83333 11.6667C5.83333 12.1269 6.20643 12.5 6.66667 12.5H10C10.4602 12.5 10.8333 12.1269 10.8333 11.6667C10.8333 11.2065 10.4602 10.8334 10 10.8334H6.66667Z"
        fill="#757575" />
    <path
        d="M6.66667 14.1667C6.20643 14.1667 5.83333 14.5398 5.83333 15C5.83333 15.4603 6.20643 15.8334 6.66667 15.8334H13.3333C13.7936 15.8334 14.1667 15.4603 14.1667 15C14.1667 14.5398 13.7936 14.1667 13.3333 14.1667H6.66667Z"
        fill="#757575" />
    <path fill-rule="evenodd" clip-rule="evenodd"
        d="M17.399 4.28136C17.3319 4.11906 17.2335 3.9716 17.1093 3.84745L14.4863 1.22449C14.2365 0.974366 13.8976 0.833686 13.5441 0.833374H3.83333C3.47971 0.833374 3.14057 0.97385 2.89052 1.2239C2.64048 1.47395 2.5 1.81309 2.5 2.16671V17.8334C2.5 18.0085 2.53449 18.1819 2.60149 18.3436C2.6685 18.5054 2.76671 18.6524 2.89052 18.7762C3.01433 18.9 3.16132 18.9982 3.32309 19.0652C3.48486 19.1322 3.65824 19.1667 3.83333 19.1667H16.1667C16.3418 19.1667 16.5151 19.1322 16.6769 19.0652C16.8387 18.9982 16.9857 18.9 17.1095 18.7762C17.2333 18.6524 17.3315 18.5054 17.3985 18.3436C17.4655 18.1818 17.5 18.0085 17.5 17.8334V4.79197L16.6667 4.79171L17.5 4.79375L17.5 4.79197C17.5002 4.61678 17.4659 4.44328 17.399 4.28136ZM12.5 4.58337C12.5 5.27373 13.0596 5.83337 13.75 5.83337H15.8333V17.5H4.16667V2.50004H12.5V4.58337ZM15.0715 4.16671L14.1667 3.26189V4.16671H15.0715Z"
        fill="#757575" />
</svg>