<svg width="20" height="20" viewBox="0 0 20 20" fill="current" xmlns="http://www.w3.org/2000/svg">
    <path fill-rule="evenodd" clip-rule="evenodd"
        d="M13 1.66663C12.6463 1.66663 12.3072 1.8071 12.0571 2.05715C11.8071 2.3072 11.6666 2.64634 11.6666 2.99996V6.66663H7.99996C7.64634 6.66663 7.3072 6.8071 7.05715 7.05715C6.8071 7.3072 6.66663 7.64634 6.66663 7.99996V12.5H2.99996C2.64634 12.5 2.3072 12.6404 2.05715 12.8905C1.8071 13.1405 1.66663 13.4797 1.66663 13.8333V17C1.66663 17.3536 1.8071 17.6927 2.05715 17.9428C2.3072 18.1928 2.64634 18.3333 2.99996 18.3333H17C17.3536 18.3333 17.6927 18.1928 17.9428 17.9428C18.1928 17.6927 18.3333 17.3536 18.3333 17V2.99996C18.3333 2.64634 18.1928 2.3072 17.9428 2.05715C17.6927 1.8071 17.3536 1.66663 17 1.66663H13ZM8.33329 8.33329H11.6666V16.6666H8.33329V8.33329ZM16.6666 16.6666H13.3333V3.33329H16.6666V16.6666ZM6.66663 14.1666V16.6666H3.33329V14.1666H6.66663Z"
        fill="#757575" />
</svg>