<svg width="20" height="20" viewBox="0 0 20 20" fill="none" xmlns="http://www.w3.org/2000/svg">
<g clip-path="url(#clip0_743_1656)">
<path fill-rule="evenodd" clip-rule="evenodd" d="M10 6.66658C9.11599 6.66658 8.26814 7.01777 7.64302 7.6429C7.0179 8.26802 6.66671 9.11586 6.66671 9.99992C6.66671 10.884 7.0179 11.7318 7.64302 12.3569C8.26814 12.9821 9.11599 13.3333 10 13.3333C10.8841 13.3333 11.7319 12.9821 12.3571 12.3569C12.9822 11.7318 13.3334 10.884 13.3334 9.99992C13.3334 9.11586 12.9822 8.26802 12.3571 7.6429C11.7319 7.01777 10.8841 6.66658 10 6.66658ZM8.82153 8.82141C9.13409 8.50885 9.55801 8.33325 10 8.33325C10.4421 8.33325 10.866 8.50885 11.1786 8.82141C11.4911 9.13397 11.6667 9.55789 11.6667 9.99992C11.6667 10.4419 11.4911 10.8659 11.1786 11.1784C10.866 11.491 10.4421 11.6666 10 11.6666C9.55801 11.6666 9.13409 11.491 8.82153 11.1784C8.50897 10.8659 8.33337 10.4419 8.33337 9.99992C8.33337 9.55789 8.50897 9.13397 8.82153 8.82141Z" fill="#757575"/>
<path fill-rule="evenodd" clip-rule="evenodd" d="M9.15087 0.833252C8.77233 0.833252 8.44135 1.08839 8.34499 1.45446L7.92269 3.05879L6.58099 3.62438L5.55395 2.71065C5.22419 2.41728 4.72288 2.4319 4.41078 2.744L2.74412 4.41066C2.4422 4.71258 2.41733 5.19386 2.68651 5.52529L3.58662 6.63354L3.03466 7.99148L1.47725 8.35507C1.10014 8.44311 0.833374 8.77933 0.833374 9.16658V10.8333C0.833374 11.209 1.08486 11.5383 1.44739 11.6372L3.05712 12.0763L3.62424 13.4217L2.71142 14.4453C2.41741 14.775 2.43176 15.2768 2.74412 15.5892L4.41078 17.2558C4.71311 17.5582 5.19519 17.5826 5.52658 17.3125L6.63444 16.4094L7.959 16.9542L8.35873 18.5373C8.45217 18.9073 8.78505 19.1666 9.16671 19.1666H10.8334C11.2149 19.1666 11.5477 18.9075 11.6412 18.5377L12.042 16.954L13.4108 16.387C13.5486 16.5025 13.7066 16.6382 13.8638 16.7751C14.0201 16.9111 14.1653 17.0393 14.2715 17.1336C14.3246 17.1806 14.3678 17.2192 14.3977 17.2458L14.4429 17.2863C14.7725 17.582 15.2763 17.5689 15.5893 17.2558L17.256 15.5892C17.5627 15.2825 17.5828 14.7918 17.3023 14.4609L16.3945 13.3905L16.9562 12.0338L18.543 11.6215C18.9103 11.526 19.1667 11.1944 19.1667 10.8149V9.16658C19.1667 8.78548 18.9082 8.45294 18.5388 8.35898L16.9619 7.95779L16.4017 6.60437L17.3031 5.53788C17.5828 5.207 17.5623 4.71701 17.256 4.41066L15.5893 2.744C15.2817 2.4364 14.7893 2.41715 14.4586 2.69979L13.4 3.60465L11.9989 3.02858L11.5852 1.45473C11.4889 1.08852 11.1578 0.833252 10.7792 0.833252H9.15087ZM15.5347 14.9534L14.9646 15.5236L14.9583 15.5181C14.6506 15.2501 14.2541 14.911 14.0305 14.7512C13.7965 14.5839 13.4928 14.5491 13.227 14.6592L11.0178 15.5742C10.7747 15.6749 10.5934 15.8845 10.5288 16.1397L10.1846 17.4999H9.81577L9.47218 16.1392C9.40754 15.8832 9.22541 15.673 8.98123 15.5726L6.80956 14.6792C6.52678 14.5629 6.203 14.6108 5.966 14.804L5.05699 15.545L4.47913 14.9672L5.21866 14.1379C5.43275 13.8978 5.48955 13.556 5.3646 13.2595L4.43543 11.0554C4.33602 10.8196 4.13376 10.6425 3.88686 10.5751L2.50004 10.1968V9.82778L3.83366 9.51643C4.09712 9.45492 4.31433 9.26934 4.4162 9.01871L5.3162 6.80455C5.43067 6.52294 5.38271 6.20134 5.19107 5.96538L4.45397 5.05783L5.03344 4.47836L5.86613 5.21918C6.10619 5.43276 6.44766 5.48929 6.74375 5.36448L8.94791 4.43531C9.18615 4.33488 9.36428 4.12957 9.43009 3.87955L9.79324 2.49992H10.1366L10.4924 3.85344C10.5588 4.10609 10.7399 4.31298 10.9815 4.41232L13.2373 5.33981C13.5265 5.45872 13.858 5.40572 14.0957 5.20255L14.9557 4.46742L15.5355 5.04726L14.8011 5.91613C14.5998 6.15423 14.5483 6.48476 14.6676 6.77282L15.5817 8.98116C15.6823 9.22402 15.8915 9.40522 16.1462 9.47002L17.5 9.81445V10.1705L16.1355 10.525C15.8825 10.5908 15.6751 10.7713 15.5751 11.0128L14.6601 13.2228C14.5406 13.5113 14.5925 13.8424 14.7945 14.0806L15.5347 14.9534Z" fill="#757575"/>
</g>
<defs>
<clipPath id="clip0_743_1656">
<rect width="20" height="20" fill="white"/>
</clipPath>
</defs>
</svg>
